<svg width="13" height="14" viewBox="0 0 13 14" fill="none" xmlns="http://www.w3.org/2000/svg">
<path d="M0.915 3.9501C1.43501 2.91462 2.23273 2.04417 3.21902 1.43602C4.20531 0.827864 5.34129 0.505983 6.5 0.506348C8.18438 0.506348 9.59938 1.1251 10.6813 2.13447L8.88938 3.92697C8.24125 3.3076 7.4175 2.99197 6.5 2.99197C4.87188 2.99197 3.49375 4.09197 3.00313 5.56885C2.87813 5.94385 2.80688 6.34385 2.80688 6.75635C2.80688 7.16885 2.87813 7.56885 3.00313 7.94385C3.49438 9.42135 4.87188 10.5207 6.5 10.5207C7.34063 10.5207 8.05625 10.2988 8.61625 9.92385C8.9409 9.7101 9.21883 9.43274 9.43325 9.10853C9.64767 8.78433 9.79412 8.42001 9.86375 8.0376H6.5V5.6201H12.3862C12.46 6.02885 12.5 6.4551 12.5 6.89822C12.5 8.80197 11.8188 10.4045 10.6362 11.492C9.6025 12.447 8.1875 13.0063 6.5 13.0063C5.67915 13.0067 4.86627 12.8452 4.10784 12.5313C3.34941 12.2173 2.66028 11.7569 2.07985 11.1765C1.49942 10.5961 1.03906 9.90694 0.725084 9.14851C0.411109 8.39008 0.249672 7.5772 0.250001 6.75635C0.250001 5.7476 0.49125 4.79385 0.915 3.9501Z" fill="black"/>
</svg>
