<?xml version="1.0" standalone="no"?>
<!DOCTYPE svg PUBLIC "-//W3C//DTD SVG 20010904//EN"
 "http://www.w3.org/TR/2001/REC-SVG-20010904/DTD/svg10.dtd">
<svg version="1.0" xmlns="http://www.w3.org/2000/svg"
 width="24.000000pt" height="24.000000pt" viewBox="0 0 24.000000 24.000000"
 preserveAspectRatio="xMidYMid meet">

<g transform="translate(0.000000,24.000000) scale(0.100000,-0.100000)"
fill="#000000" stroke="none">
<path d="M0 213 c1 -24 2 -25 11 -11 5 10 17 22 27 27 14 9 13 10 -10 11 -24
0 -28 -4 -28 -27z"/>
<path d="M191 237 c2 -1 14 -11 27 -21 22 -19 22 -19 22 2 0 17 -6 22 -27 22
-14 0 -24 -1 -22 -3z"/>
<path d="M40 200 c-25 -25 -28 -124 -4 -158 13 -19 24 -22 83 -22 89 0 101 13
101 102 0 84 -14 98 -98 98 -49 0 -66 -4 -82 -20z m151 -23 c-13 -13 -26 -3
-16 12 3 6 11 8 17 5 6 -4 6 -10 -1 -17z m-29 -14 c22 -20 23 -61 1 -85 -34
-38 -103 -11 -103 40 0 54 62 81 102 45z"/>
<path d="M90 145 c-26 -32 13 -81 48 -59 22 14 27 41 12 59 -16 19 -44 19 -60
0z"/>
<path d="M0 28 c0 -24 4 -28 28 -28 23 1 24 2 10 11 -10 5 -22 17 -27 27 -9
14 -10 13 -11 -10z"/>
<path d="M211 20 l-23 -20 26 0 c19 0 26 5 26 20 0 24 1 24 -29 0z"/>
</g>
</svg>
