<svg width="13" height="11" viewBox="0 0 13 11" fill="none" xmlns="http://www.w3.org/2000/svg">
<path d="M12.75 1.88123C12.2802 2.08504 11.7834 2.21977 11.275 2.28123C11.8114 1.96081 12.2133 1.45672 12.4062 0.862485C11.9022 1.16252 11.3505 1.37392 10.775 1.48748C10.3903 1.07034 9.87811 0.79267 9.31863 0.698017C8.75916 0.603364 8.18409 0.697084 7.68362 0.964478C7.18315 1.23187 6.78558 1.65782 6.55328 2.17551C6.32097 2.6932 6.26706 3.27335 6.4 3.82498C5.38089 3.77344 4.38403 3.50808 3.47416 3.04615C2.56429 2.58422 1.76178 1.93604 1.11875 1.14373C0.893211 1.53759 0.7747 1.98362 0.775 2.43748C0.7742 2.85897 0.877636 3.27412 1.0761 3.64596C1.27456 4.0178 1.56189 4.3348 1.9125 4.56873C1.50499 4.55765 1.10618 4.4483 0.75 4.24998V4.28123C0.753054 4.87179 0.959996 5.44317 1.33582 5.89871C1.71165 6.35426 2.23328 6.66601 2.8125 6.78123C2.58953 6.84909 2.35805 6.88486 2.125 6.88749C1.96368 6.8856 1.80276 6.87097 1.64375 6.84373C1.80869 7.35174 2.12789 7.7957 2.55692 8.11383C2.98595 8.43197 3.50348 8.60845 4.0375 8.61873C3.13575 9.32828 2.02243 9.71552 0.875 9.71873C0.666085 9.71942 0.457335 9.70689 0.25 9.68124C1.42152 10.4376 2.78676 10.8392 4.18125 10.8375C5.14356 10.8475 6.09821 10.6656 6.98945 10.3025C7.88068 9.93945 8.69064 9.40241 9.372 8.72279C10.0534 8.04318 10.5925 7.2346 10.9578 6.3443C11.3232 5.454 11.5075 4.49981 11.5 3.53748V3.20623C11.9904 2.84049 12.4134 2.39213 12.75 1.88123Z" fill="black"/>
</svg>
