<svg width="14" height="14" viewBox="0 0 14 14" fill="none" xmlns="http://www.w3.org/2000/svg">
<path d="M7.00001 0.75C10.4519 0.75 13.25 3.54813 13.25 7C13.25 10.4519 10.4519 13.25 7.00001 13.25C5.93623 13.2516 4.88981 12.9804 3.96063 12.4625L3.77001 12.3512L1.87501 12.9088C1.77188 12.9391 1.66271 12.9427 1.55783 12.9191C1.45295 12.8954 1.35584 12.8454 1.27572 12.7737C1.19559 12.702 1.1351 12.6111 1.09997 12.5095C1.06484 12.4079 1.05625 12.299 1.07501 12.1931L1.09126 12.125L1.64876 10.23C1.05935 9.25581 0.748491 8.13861 0.750006 7C0.750006 3.54813 3.54813 0.75 7.00001 0.75ZM7.00001 2C6.10477 1.99984 5.22592 2.24004 4.45521 2.69551C3.68451 3.15098 3.05023 3.80503 2.61861 4.58934C2.18699 5.37365 1.97386 6.25946 2.00148 7.15427C2.0291 8.04907 2.29646 8.92005 2.77563 9.67625C2.89938 9.87125 2.95251 10.1112 2.91063 10.3494L2.88626 10.4513L2.61063 11.3894L3.54876 11.1138C3.81938 11.0338 4.10063 11.0825 4.32376 11.2244C4.97896 11.6392 5.72169 11.896 6.49322 11.9744C7.26476 12.0528 8.04395 11.9506 8.7692 11.676C9.49445 11.4014 10.1459 10.9618 10.672 10.3921C11.1981 9.8223 11.5845 9.13798 11.8006 8.39319C12.0166 7.6484 12.0565 6.86355 11.917 6.10069C11.7775 5.33783 11.4625 4.61788 10.9969 3.99774C10.5312 3.37759 9.9277 2.87427 9.23402 2.52755C8.54033 2.18083 7.77551 2.00022 7.00001 2ZM5.18876 3.99C5.25795 3.96004 5.33376 3.9486 5.40871 3.95682C5.48367 3.96504 5.5552 3.99263 5.61626 4.03687C5.93126 4.26687 6.18126 4.57562 6.39626 4.87687L6.60063 5.17312L6.69626 5.31375C6.75143 5.39442 6.77851 5.49102 6.77331 5.58862C6.76812 5.68622 6.73093 5.77939 6.66751 5.85375L6.62063 5.90125L6.04313 6.33C6.01534 6.35013 5.99578 6.37964 5.98808 6.41308C5.98038 6.44652 5.98506 6.48162 6.00126 6.51188C6.13251 6.74937 6.36438 7.10375 6.63063 7.37C6.89751 7.63625 7.26813 7.88375 7.52188 8.02938C7.57688 8.06063 7.64313 8.05063 7.68813 8.01L7.71188 7.98187L8.08751 7.41C8.15646 7.31814 8.2583 7.25654 8.37168 7.23813C8.48505 7.21972 8.60115 7.24593 8.69563 7.31125L9.03501 7.54812C9.37251 7.78875 9.69688 8.0475 9.95376 8.37563C10.0015 8.43717 10.0319 8.51041 10.0417 8.5877C10.0515 8.66499 10.0403 8.74349 10.0094 8.815C9.76188 9.3925 9.135 9.88437 8.48376 9.86062L8.38438 9.85437L8.26501 9.84312C8.24247 9.84046 8.21997 9.83754 8.19751 9.83438L8.04876 9.80938C7.47126 9.70063 6.54563 9.37313 5.58626 8.41437C4.62751 7.455 4.30001 6.52938 4.19126 5.95187L4.16626 5.80312L4.15063 5.67312L4.14251 5.56375C4.14152 5.54813 4.14068 5.53251 4.14001 5.51687C4.11626 4.86438 4.61063 4.2375 5.18876 3.99Z" fill="black"/>
</svg>
